# xmcd
#
# Track frame offsets:
#	150
#	16148
#	35197
#	52579
#	68394
#	86248
#	103341
#	118891
#	134465
#	148786
#	164191
#
# Disc length: 2436 seconds
#
# Revision: 1
# Processed by: cddbd v1.5.2PL0 Copyright (c) Steve Scherf et al.
# Submitted via: audiograbber 1.83.01
#
DISCID=a009820b
DTITLE=Barry Manilow - The Best Of Barry Manilow
DYEAR=1978
DGENRE=Pop
TTITLE0=Mandy
TTITLE1=Could It Be Magic
TTITLE2=I Write The Songs
TTITLE3=Looks Like We Made It
TTITLE4=It's A Miracle
TTITLE5=Tryin' To Get The Feeling Again
TTITLE6=This One's For You
TTITLE7=Even Now
TTITLE8=Can't Smile Without You
TTITLE9=Somewhere In The Night
TTITLE10=Copacabana (Disco)
EXTD=
EXTT0=
EXTT1=
EXTT2=
EXTT3=
EXTT4=
EXTT5=
EXTT6=
EXTT7=
EXTT8=
EXTT9=
EXTT10=
PLAYORDER=
